<?xml version="1.0" encoding="UTF-8"?>
<svg id="a" data-name="Layer 1" xmlns="http://www.w3.org/2000/svg" viewBox="0 0 1080 1080">
  <path d="M422.13,582.19c-8.3-8.61-18.76-12.61-34.75-12.61-60.9,0-88.27,64.28-95.03,116.57,15.38-23.68,41.21-37.83,73.51-37.83,111.03,0,104.26,165.16-12.3,165.16-61.82,0-91.96-49.21-91.96-102.42,0-74.43,48.6-148.86,134.71-148.86,12,0,23.99,1.23,35.37,5.23l-9.54,14.76ZM418.13,731.67c0-59.98-34.75-83.04-71.04-75.66-26.76,5.23-48.6,27.68-56.29,59.05,2.46,117.49,127.34,123.03,127.34,16.61Z" fill="#010101"/>
  <path d="M617.29,394.21c-8.3-8.61-18.76-12.61-34.75-12.61-60.9,0-88.27,64.28-95.03,116.57,15.38-23.68,41.21-37.83,73.51-37.83,111.03,0,104.26,165.16-12.3,165.16-61.82,0-91.96-49.21-91.96-102.42,0-74.43,48.6-148.86,134.71-148.86,12,0,23.99,1.23,35.37,5.23l-9.54,14.76ZM613.29,543.69c0-59.98-34.75-83.04-71.04-75.66-26.76,5.23-48.6,27.68-56.29,59.05,2.46,117.49,127.34,123.03,127.34,16.61Z" fill="#010101"/>
  <path d="M795.35,582.19c-8.3-8.61-18.76-12.61-34.75-12.61-60.9,0-88.27,64.28-95.03,116.57,15.38-23.68,41.21-37.83,73.51-37.83,111.03,0,104.26,165.16-12.3,165.16-61.82,0-91.96-49.21-91.96-102.42,0-74.43,48.6-148.86,134.71-148.86,12,0,23.99,1.23,35.37,5.23l-9.54,14.76ZM791.35,731.67c0-59.98-34.75-83.04-71.04-75.66-26.76,5.23-48.6,27.68-56.29,59.05,2.46,117.49,127.34,123.03,127.34,16.61Z" fill="#010101"/>
  <ellipse cx="548.61" cy="300.7" rx="183.71" ry="34.18" fill="none" stroke="#010101" stroke-miterlimit="10"/>
</svg>