<?xml version="1.0" encoding="UTF-8"?>
<svg id="a" data-name="Layer 1" xmlns="http://www.w3.org/2000/svg" viewBox="0 0 1080 1080">
  <path d="M420.83,620.69v160.54h33.77v9.99l-33.77-1.38v45.13h-27.9v-43.75h-168.12c62.36-65.46,119.55-153.3,129.2-229.79h34.11c-9.3,47.55-81.65,152.62-141.59,219.45l146.41.35v-160.54h27.9Z" fill="#010101"/>
  <path d="M640.27,444.4v160.54h33.77v9.99l-33.77-1.38v45.13h-27.9v-43.75h-168.12c62.36-65.46,119.55-153.3,129.2-229.79h34.11c-9.3,47.55-81.65,152.62-141.59,219.45l146.41.35v-160.54h27.9Z" fill="#010101"/>
  <path d="M821.42,620.69v160.54h33.77v9.99l-33.77-1.38v45.13h-27.9v-43.75h-168.12c62.36-65.46,119.55-153.3,129.2-229.79h34.11c-9.3,47.55-81.65,152.62-141.59,219.45l146.41.35v-160.54h27.9Z" fill="#010101"/>
  <ellipse cx="580.85" cy="283.32" rx="205.77" ry="38.28" fill="none" stroke="#010101" stroke-miterlimit="10"/>
</svg>