<?xml version="1.0" encoding="UTF-8"?>
<svg id="a" data-name="Layer 1" xmlns="http://www.w3.org/2000/svg" viewBox="0 0 1080 1080">
  <g>
    <path d="M524.72,501.98c-45.86,0-68.78,22.92-68.78,68.78,0-45.86-22.92-68.78-68.78-68.78,45.86,0,68.78-22.92,68.78-68.78,0,45.86,22.92,68.78,68.78,68.78Z" fill="none" stroke="#010101" stroke-linecap="round" stroke-linejoin="round" stroke-width=".81"/>
    <path d="M524.72,501.98c-45.86,0-68.78,22.92-68.78,68.78,0-45.86-22.92-68.78-68.78-68.78,45.86,0,68.78-22.92,68.78-68.78,0,45.86,22.92,68.78,68.78,68.78Z" fill="#010101" stroke="#010101" stroke-linecap="round" stroke-linejoin="round" stroke-width=".81"/>
    <path d="M456.35,570.76l-.41,193.11-.41-193.11c0-.22.18-.41.41-.41.23,0,.41.18.41.41h0Z" fill="#010101"/>
  </g>
  <g>
    <path d="M692.83,501.98c-45.86,0-68.78,22.92-68.78,68.78,0-45.86-22.92-68.78-68.78-68.78,45.86,0,68.78-22.92,68.78-68.78,0,45.86,22.92,68.78,68.78,68.78Z" fill="none" stroke="#010101" stroke-linecap="round" stroke-linejoin="round" stroke-width=".81"/>
    <path d="M692.83,501.98c-45.86,0-68.78,22.92-68.78,68.78,0-45.86-22.92-68.78-68.78-68.78,45.86,0,68.78-22.92,68.78-68.78,0,45.86,22.92,68.78,68.78,68.78Z" fill="#010101" stroke="#010101" stroke-linecap="round" stroke-linejoin="round" stroke-width=".81"/>
    <path d="M624.46,570.76l-.41,193.11-.41-193.11c0-.22.18-.41.41-.41.23,0,.41.18.41.41h0Z" fill="#010101"/>
  </g>
  <g>
    <path d="M609.67,384.91c-45.86,0-68.78,22.92-68.78,68.78,0-45.86-22.92-68.78-68.78-68.78,45.86,0,68.78-22.92,68.78-68.78,0,45.86,22.92,68.78,68.78,68.78Z" fill="none" stroke="#010101" stroke-linecap="round" stroke-linejoin="round" stroke-width=".81"/>
    <path d="M609.67,384.91c-45.86,0-68.78,22.92-68.78,68.78,0-45.86-22.92-68.78-68.78-68.78,45.86,0,68.78-22.92,68.78-68.78,0,45.86,22.92,68.78,68.78,68.78Z" fill="#010101" stroke="#010101" stroke-linecap="round" stroke-linejoin="round" stroke-width=".81"/>
    <path d="M541.3,453.69l-.41,193.11-.41-193.11c0-.22.18-.41.41-.41.23,0,.41.18.41.41h0Z" fill="#010101"/>
  </g>
</svg>