<?xml version="1.0" encoding="UTF-8"?>
<svg id="a" data-name="Layer 1" xmlns="http://www.w3.org/2000/svg" viewBox="0 0 1080 1080">
  <path d="M367.56,540.24c-20.63,50.14-75.97,90.78-123.62,90.78s-69.55-40.64-48.92-90.78c20.63-50.14,75.97-90.78,123.62-90.78s69.55,40.64,48.92,90.78Z" fill="none" stroke="#010101" stroke-miterlimit="10" stroke-width="3"/>
  <path d="M453.83,540.24c-20.63,50.14-75.97,90.78-123.62,90.78s-69.55-40.64-48.92-90.78,75.97-90.78,123.62-90.78,69.55,40.64,48.92,90.78Z" fill="none" stroke="#010101" stroke-miterlimit="10" stroke-width="3"/>
  <path d="M540.1,540.24c-20.63,50.14-75.97,90.78-123.62,90.78s-69.55-40.64-48.92-90.78c20.63-50.14,75.97-90.78,123.62-90.78s69.55,40.64,48.92,90.78Z" fill="none" stroke="#010101" stroke-miterlimit="10" stroke-width="3"/>
  <path d="M626.77,539.27c-20.63,50.14-75.97,90.78-123.62,90.78s-69.55-40.64-48.92-90.78c20.63-50.14,75.97-90.78,123.62-90.78s69.55,40.64,48.92,90.78Z" fill="none" stroke="#010101" stroke-miterlimit="10" stroke-width="3"/>
  <path d="M712.44,540.73c-20.63,50.14-75.97,90.78-123.62,90.78s-69.55-40.64-48.92-90.78c20.63-50.14,75.97-90.78,123.62-90.78s69.55,40.64,48.92,90.78Z" fill="none" stroke="#010101" stroke-miterlimit="10" stroke-width="3"/>
  <path d="M798.71,540.73c-20.63,50.14-75.97,90.78-123.62,90.78s-69.55-40.64-48.92-90.78c20.63-50.14,75.97-90.78,123.62-90.78s69.55,40.64,48.92,90.78Z" fill="none" stroke="#010101" stroke-miterlimit="10" stroke-width="3"/>
  <path d="M884.98,540.73c-20.63,50.14-75.97,90.78-123.62,90.78s-69.55-40.64-48.92-90.78c20.63-50.14,75.97-90.78,123.62-90.78s69.55,40.64,48.92,90.78Z" fill="none" stroke="#010101" stroke-miterlimit="10" stroke-width="3"/>
</svg>