<?xml version="1.0" encoding="UTF-8"?>
<svg id="a" data-name="Layer 1" xmlns="http://www.w3.org/2000/svg" viewBox="0 0 1080 1080">
  <g>
    <ellipse cx="444.7" cy="538.43" rx="186.86" ry="157.19" fill="none" stroke="#010101" stroke-miterlimit="10" stroke-width="3.26"/>
    <ellipse cx="635.3" cy="541.57" rx="186.86" ry="157.19" fill="none" stroke="#010101" stroke-miterlimit="10" stroke-width="3.26"/>
  </g>
  <g>
    <path d="M540,661.27c0-80.86-15.61-121.27-111.73-121.27,96.12,0,111.73-40.41,111.73-121.27,0,80.86,15.61,121.27,111.73,121.27-96.12,0-111.73,40.41-111.73,121.27Z" fill="#010101"/>
    <path d="M540,706.72c0-80.86-4.8-166.72-100.93-166.72,96.12,0,100.93-85.86,100.93-166.72,0,80.86,15.61,166.72,111.73,166.72-96.12,0-111.73,85.86-111.73,166.72Z" fill="#010101"/>
  </g>
</svg>