<?xml version="1.0" encoding="UTF-8"?>
<svg id="a" data-name="Layer 1" xmlns="http://www.w3.org/2000/svg" viewBox="0 0 1080 1080">
  <g>
    <path d="M328.13,814.35h-26.81l111.14-261.22h-110.54c-47,0-12.06,66.74-3.31,88.2l-3.93,2.01c-6.02-13.08-38.25-79.14-38.25-87.85s8.13-9.73,14.46-9.73l171.09.34-113.85,268.26Z" fill="#010101"/>
    <path d="M498.48,646.61h-26.81l111.16-261.22h-110.56c-46.98,0-12.04,66.74-3.31,88.2l-3.91,2.01c-6.02-13.08-38.27-79.14-38.27-87.85s8.15-9.73,14.46-9.73l171.11.34-113.87,268.26Z" fill="#010101"/>
    <path d="M668.84,814.35h-26.81l111.16-261.22h-110.56c-46.98,0-12.04,66.74-3.31,88.2l-3.91,2.01c-6.02-13.08-38.27-79.14-38.27-87.85s8.15-9.73,14.46-9.73l171.11.34-113.87,268.26Z" fill="#010101"/>
    <path id="b" data-name="4" d="M392.6,445.67h0s-14.99,0-14.99,0h0c-12.7,0-23-10.3-23-23.01h0v-19.98h0c-.01-2.1-1.73-3.8-3.85-3.8s-3.83,1.7-3.85,3.8h0v19.98s0,0,0,0c0,12.7-10.3,23-23,23h0s-18.09,0-18.09,0h0c-2.1.02-3.8,1.73-3.8,3.85s1.7,3.83,3.8,3.85h0s18.09,0,18.09,0h0c12.7,0,23,10.3,23,23.01h0v66.22h0c.01,2.1,1.73,3.8,3.85,3.8s3.83-1.7,3.85-3.8h0v-66.22h0c0-12.7,10.3-23,23-23h0s14.99,0,14.99,0h0c2.1-.02,3.8-1.73,3.8-3.85s-1.7-3.83-3.8-3.85Z" fill="#010101"/>
    <path id="c" data-name="4" d="M733.33,445.67h0s-14.99,0-14.99,0h0c-12.7,0-23-10.3-23-23.01h0v-19.98h0c-.01-2.1-1.73-3.8-3.85-3.8s-3.83,1.7-3.85,3.8h0v19.98s0,0,0,0c0,12.7-10.3,23-23,23h0s-18.09,0-18.09,0h0c-2.1.02-3.8,1.73-3.8,3.85s1.7,3.83,3.8,3.85h0s18.09,0,18.09,0h0c12.7,0,23,10.3,23,23.01h0v66.22h0c.01,2.1,1.73,3.8,3.85,3.8s3.83-1.7,3.85-3.8h0v-66.22h0c0-12.7,10.3-23,23-23h0s14.99,0,14.99,0h0c2.1-.02,3.8-1.73,3.8-3.85s-1.7-3.83-3.8-3.85Z" fill="#010101"/>
  </g>
  <ellipse cx="528.18" cy="304.73" rx="210.07" ry="39.08" fill="none" stroke="#010101" stroke-miterlimit="10"/>
</svg>