<?xml version="1.0" encoding="UTF-8"?>
<svg id="a" data-name="Layer 1" xmlns="http://www.w3.org/2000/svg" viewBox="0 0 1080 1080">
  <g>
    <path d="M414.44,600.57c7.98-17.16-1.23-28.92-19.34-28.92h-79.52v97.89c16.88-10.8,36.23-15.57,58.03-15.57,46.66,0,88.73,25.43,88.73,78.18,0,57.21-40.22,92.48-93.95,92.48-32.85,0-64.78-13.67-87.81-37.82l11.98-12.08c13.2,26.06,42.98,43.86,71.54,43.86,46.05,0,70-41.32,70-84.86,0-40.37-20.27-73.42-62.33-73.42-31.31,0-55.57,19.07-75.22,42.91l-5.83-3.82v-134.44h108.07c22.72,0,35,.32,40.53,9.85,8.29,14.3-15.05,37.82-25.8,47.67l-26.41,26.38-3.99-3.5c16.58-20.02,23.64-27.65,31.32-44.81Z" fill="#010101"/>
    <path d="M582.99,406.32c7.98-17.16-1.23-28.92-19.34-28.92h-79.52v97.89c16.88-10.8,36.23-15.57,58.03-15.57,46.66,0,88.73,25.43,88.73,78.18,0,57.21-40.22,92.48-93.95,92.48-32.85,0-64.78-13.67-87.81-37.82l11.98-12.08c13.2,26.06,42.98,43.86,71.54,43.86,46.05,0,70-41.32,70-84.86,0-40.37-20.27-73.42-62.33-73.42-31.31,0-55.57,19.07-75.22,42.91l-5.83-3.82v-134.44h108.07c22.72,0,35,.32,40.53,9.85,8.29,14.3-15.05,37.82-25.8,47.67l-26.41,26.38-3.99-3.5c16.58-20.02,23.64-27.65,31.32-44.81Z" fill="#010101"/>
    <path d="M751.53,600.57c7.98-17.16-1.23-28.92-19.34-28.92h-79.52v97.89c16.88-10.8,36.23-15.57,58.03-15.57,46.66,0,88.73,25.43,88.73,78.18,0,57.21-40.22,92.48-93.95,92.48-32.85,0-64.78-13.67-87.81-37.82l11.98-12.08c13.2,26.06,42.98,43.86,71.54,43.86,46.05,0,70-41.32,70-84.86,0-40.37-20.27-73.42-62.33-73.42-31.31,0-55.57,19.07-75.22,42.91l-5.83-3.82v-134.44h108.07c22.72,0,35,.32,40.53,9.85,8.29,14.3-15.05,37.82-25.8,47.67l-26.41,26.38-3.99-3.5c16.58-20.02,23.64-27.65,31.32-44.81Z" fill="#010101"/>
    <path id="b" data-name="4" d="M406.57,473.32h0s-13.09,0-13.09,0h0c-11.09,0-20.08-9.31-20.08-20.79h0v-18.06h0c-.01-1.9-1.51-3.43-3.36-3.43s-3.35,1.54-3.36,3.43h0v18.06s0,0,0,0c0,11.48-8.99,20.79-20.08,20.79h0s-15.79,0-15.79,0h0c-1.83.01-3.32,1.56-3.32,3.48s1.48,3.46,3.32,3.48h0s15.79,0,15.79,0h0c11.09,0,20.08,9.31,20.08,20.79h0v59.85h0c.01,1.9,1.51,3.43,3.36,3.43s3.35-1.54,3.36-3.43h0v-59.85h0c0-11.48,8.99-20.79,20.08-20.79h0s13.09,0,13.09,0h0c1.83-.01,3.32-1.56,3.32-3.48s-1.48-3.46-3.32-3.48Z" fill="#010101"/>
    <path id="c" data-name="4" d="M747.76,473.32h0s-13.09,0-13.09,0h0c-11.09,0-20.08-9.31-20.08-20.79h0v-18.06h0c-.01-1.9-1.51-3.43-3.36-3.43s-3.35,1.54-3.36,3.43h0v18.06s0,0,0,0c0,11.48-8.99,20.79-20.08,20.79h0s-15.79,0-15.79,0h0c-1.83.01-3.32,1.56-3.32,3.48s1.48,3.46,3.32,3.48h0s15.79,0,15.79,0h0c11.09,0,20.08,9.31,20.08,20.79h0v59.85h0c.01,1.9,1.51,3.43,3.36,3.43s3.35-1.54,3.36-3.43h0v-59.85h0c0-11.48,8.99-20.79,20.08-20.79h0s13.09,0,13.09,0h0c1.83-.01,3.32-1.56,3.32-3.48s-1.48-3.46-3.32-3.48Z" fill="#010101"/>
  </g>
  <ellipse cx="536.93" cy="290.69" rx="183.39" ry="35.32" fill="none" stroke="#010101" stroke-miterlimit="10"/>
</svg>