<?xml version="1.0" encoding="UTF-8"?>
<svg id="a" data-name="Layer 1" xmlns="http://www.w3.org/2000/svg" viewBox="0 0 1080 1080">
  <g>
    <path d="M306.06,675.53l82.98-81.38h-92.55c-10.37,0-17.29.67-20.75,1.99-6.65,2.13-9.97,7.32-9.97,15.56,0,2.66.26,6.52.8,11.57.53,5.06.8,8.91.8,11.57,0,13.83-4.66,20.74-13.96,20.74s-13.56-5.71-13.56-17.15c0-3.19.19-8.04.59-14.56.4-6.51.6-11.36.6-14.55v-29.12c0-7.18,1.32-11.63,3.97-13.37,2.64-1.73,9.27-2.59,19.86-2.59h97.73c5.31,0,14.3-.27,27.02-.8,6.35-.27,13.76-.4,22.24-.4,15.63,0,23.45,4.77,23.45,14.3,0,6.09-3.33,12.32-9.98,18.68l-73.4,70.33h11.57c22.6,0,41.15,7.24,55.65,21.74,14.49,14.5,21.74,33.05,21.74,55.64,0,28.2-10.31,51.2-30.91,69.02-20.62,17.82-47.15,26.72-79.59,26.72-29.78,0-54.65-7.24-74.59-21.74-19.94-14.49-29.92-32.64-29.92-54.45,0-12.5,3.59-23.07,10.78-31.71,7.18-8.64,16.08-12.97,26.72-12.97,6.91,0,12.57,2.06,16.96,6.18,4.39,4.13,6.59,9.52,6.59,16.16,0,13.3-7.85,19.95-23.54,19.95h-4.39v2.79c0,13.03,7.24,24.33,21.74,33.9,14.49,9.58,31.57,14.37,51.26,14.37,22.07,0,40.15-6.32,54.25-18.95,14.09-12.63,21.14-28.79,21.14-48.47,0-34.57-19.68-51.86-59.04-51.86-10.37,0-21.15,1.2-32.32,3.59-2.39.54-4.66.8-6.78.8-6.38,0-9.57-3.45-9.57-10.37,0-3.19,2.12-6.91,6.38-11.17Z" fill="#010101"/>
    <path d="M522.17,466.58l82.98-81.38h-92.55c-10.37,0-17.29.67-20.75,1.99-6.65,2.13-9.97,7.32-9.97,15.56,0,2.66.26,6.52.8,11.57.53,5.06.8,8.91.8,11.57,0,13.83-4.66,20.74-13.96,20.74s-13.56-5.71-13.56-17.15c0-3.19.19-8.04.59-14.56.4-6.51.6-11.36.6-14.55v-29.12c0-7.18,1.32-11.63,3.97-13.37,2.64-1.73,9.27-2.59,19.86-2.59h97.73c5.31,0,14.3-.27,27.02-.8,6.35-.27,13.76-.4,22.24-.4,15.63,0,23.45,4.77,23.45,14.3,0,6.09-3.33,12.32-9.98,18.68l-73.4,70.33h11.57c22.6,0,41.15,7.24,55.65,21.74,14.49,14.5,21.74,33.05,21.74,55.64,0,28.2-10.31,51.2-30.91,69.02-20.62,17.82-47.15,26.72-79.59,26.72-29.78,0-54.65-7.24-74.59-21.74-19.94-14.49-29.92-32.64-29.92-54.45,0-12.5,3.59-23.07,10.78-31.71,7.18-8.64,16.08-12.97,26.72-12.97,6.91,0,12.57,2.06,16.96,6.18,4.39,4.13,6.59,9.52,6.59,16.16,0,13.3-7.85,19.95-23.54,19.95h-4.39v2.79c0,13.03,7.24,24.33,21.74,33.9,14.49,9.58,31.57,14.37,51.26,14.37,22.07,0,40.15-6.32,54.25-18.95,14.09-12.63,21.14-28.79,21.14-48.47,0-34.57-19.68-51.86-59.04-51.86-10.37,0-21.15,1.2-32.32,3.59-2.39.54-4.66.8-6.78.8-6.38,0-9.57-3.45-9.57-10.37,0-3.19,2.12-6.91,6.38-11.17Z" fill="#010101"/>
    <path d="M719.29,675.53l82.98-81.38h-92.55c-10.37,0-17.29.67-20.75,1.99-6.65,2.13-9.97,7.32-9.97,15.56,0,2.66.26,6.52.8,11.57.53,5.06.8,8.91.8,11.57,0,13.83-4.66,20.74-13.96,20.74s-13.56-5.71-13.56-17.15c0-3.19.19-8.04.59-14.56.4-6.51.6-11.36.6-14.55v-29.12c0-7.18,1.32-11.63,3.97-13.37,2.64-1.73,9.27-2.59,19.86-2.59h97.73c5.31,0,14.3-.27,27.02-.8,6.35-.27,13.76-.4,22.24-.4,15.63,0,23.45,4.77,23.45,14.3,0,6.09-3.33,12.32-9.98,18.68l-73.4,70.33h11.57c22.6,0,41.15,7.24,55.65,21.74,14.49,14.5,21.74,33.05,21.74,55.64,0,28.2-10.31,51.2-30.91,69.02-20.62,17.82-47.15,26.72-79.59,26.72-29.78,0-54.65-7.24-74.59-21.74-19.94-14.49-29.92-32.64-29.92-54.45,0-12.5,3.59-23.07,10.78-31.71,7.18-8.64,16.08-12.97,26.72-12.97,6.91,0,12.57,2.06,16.96,6.18,4.39,4.13,6.59,9.52,6.59,16.16,0,13.3-7.85,19.95-23.54,19.95h-4.39v2.79c0,13.03,7.24,24.33,21.74,33.9,14.49,9.58,31.57,14.37,51.26,14.37,22.07,0,40.15-6.32,54.25-18.95,14.09-12.63,21.14-28.79,21.14-48.47,0-34.57-19.68-51.86-59.04-51.86-10.37,0-21.15,1.2-32.32,3.59-2.39.54-4.66.8-6.78.8-6.38,0-9.57-3.45-9.57-10.37,0-3.19,2.12-6.91,6.38-11.17Z" fill="#010101"/>
    <g>
      <path d="M371.77,498.94c-22.53,0-33.79,11.26-33.79,33.79,0-22.53-11.26-33.79-33.79-33.79,22.53,0,33.79-11.26,33.79-33.79,0,22.53,11.26,33.79,33.79,33.79Z" fill="none" stroke="#010101" stroke-linecap="round" stroke-linejoin="round" stroke-width=".3"/>
      <path d="M371.77,498.94c-22.53,0-33.79,11.26-33.79,33.79,0-22.53-11.26-33.79-33.79-33.79,22.53,0,33.79-11.26,33.79-33.79,0,22.53,11.26,33.79,33.79,33.79Z" fill="#010101" stroke="#010101" stroke-linecap="round" stroke-linejoin="round" stroke-width=".3"/>
      <line x1="337.99" y1="532.72" x2="337.99" y2="568.61" fill="none" stroke="#010101" stroke-linecap="round" stroke-linejoin="round" stroke-width=".3"/>
    </g>
    <g>
      <path d="M783.08,486.44c-22.53,0-33.79,11.26-33.79,33.79,0-22.53-11.26-33.79-33.79-33.79,22.53,0,33.79-11.26,33.79-33.79,0,22.53,11.26,33.79,33.79,33.79Z" fill="none" stroke="#010101" stroke-linecap="round" stroke-linejoin="round" stroke-width=".3"/>
      <path d="M783.08,486.44c-22.53,0-33.79,11.26-33.79,33.79,0-22.53-11.26-33.79-33.79-33.79,22.53,0,33.79-11.26,33.79-33.79,0,22.53,11.26,33.79,33.79,33.79Z" fill="#010101" stroke="#010101" stroke-linecap="round" stroke-linejoin="round" stroke-width=".3"/>
      <line x1="749.3" y1="520.22" x2="749.3" y2="556.11" fill="none" stroke="#010101" stroke-linecap="round" stroke-linejoin="round" stroke-width=".3"/>
    </g>
  </g>
  <ellipse cx="553.82" cy="278.51" rx="204.2" ry="37.99" fill="none" stroke="#010101" stroke-miterlimit="10"/>
</svg>