<?xml version="1.0" encoding="UTF-8"?>
<svg id="a" data-name="Layer 1" xmlns="http://www.w3.org/2000/svg" viewBox="0 0 1080 1080">
  <g>
    <path d="M418.98,683.29c16.29-16.29,48.88-48.4,51.76-50.8s0-21.18,0-21.18c0,0-23.16-16.68-25.24-22.67-2.08-5.99-12.14-54.39-15.97-60.14-3.83-5.75-15.34-48.88-14.38-56.07s6.71-22.52,7.67-30.67,6.23-53.67,6.23-61.34-5.75-16.77-5.75-16.77c0,0,8.15-12.94,12.94-16.29,4.79-3.35,17.73-10.54,20.61-13.9,2.88-3.35,16.77-11.98,20.61-16.77s19.65-15.34,26.36-17.25c0,0,4.79-2.88,15.34-2.88s52.71.96,52.71.96c0,0,14.38,2.88,22.52,9.58,0,0,19.65,13.42,23.96,16.77,4.31,3.35,27.79,20.61,32.11,26.36,4.31,5.75,6.23,9.11,6.23,13.42v15.04s-3.35.29-3.35,4.13.48,27.32.48,27.32c0,0,.96,21.89,2.88,26.04,1.92,4.15,3.83,13.74,6.71,17.09,2.88,3.35.96,11.54,0,17.99-.96,6.45-.48,14.6-1.92,18.67-1.44,4.07-5.75,25.16-5.27,28.51.48,3.35-3.35,31.15-4.31,34.5-.96,3.35-3.83,19.17-3.83,22.52s-7.19,10.54-11.02,13.9c-3.83,3.35-7.67.96-8.63,12.46-.96,11.5-3.35,15.81-3.83,20.13-.48,4.31-4.79,13.42,3.83,19.65,8.63,6.23,11.5,10.06,15.34,13.42,3.83,3.35,11.02,11.02,14.38,14.86,3.35,3.83,5.75,8.63,5.75,11.98s-.48,4.31-2.4,4.31-5.27,1.92-8.15,4.79-15.34,13.42-15.81,15.34c-.48,1.92-36.9,39.78-41.21,45.05-4.31,5.27-20.61,22.52-24.44,24.44-3.83,1.92-4.79,2.4-6.71,2.4h-10.09s-1.41,5.27-5.24,5.27-16.77-2.4-24.92-6.23c-8.15-3.83-37.38-20.61-47.92-29.23-10.54-8.63-23.48-17.25-33.55-32.11-10.06-14.86-10.06-13.42-14.86-20.61-4.79-7.19-9.58-11.98-9.58-11.98Z" fill="#010101"/>
    <path d="M418.96,683.29c16.26-16.36,35.99-35.51,52.25-51.59,1.01-2.75.71-5.81.66-8.7-.2-3.91-.64-7.81-1.21-11.68-7.54-5.52-15.66-11.59-22.32-18.51-.93-1.02-1.85-2.08-2.54-3.3-1.15-2.53-1.54-5.33-2.29-8-1.23-5.11-4.5-18.95-5.76-24.24-1.3-5.38-2.63-10.76-4.09-16.1-1.34-4.63-2.41-9.41-4.82-13.64-4.66-10.81-7.36-22.38-10.28-33.76-1.5-7.08-3.67-14.22-3.57-21.51,2.13-11.93,7.37-23.16,8.2-35.33,1.6-13.65,3.13-27.62,4.51-41.28.44-5.5,1.26-11.02,1.13-16.53-.46-5.56-3.11-10.79-5.66-15.55,3.58-5.42,7.17-10.96,11.91-15.46,5.19-3.94,11.06-6.88,16.41-10.59,3.76-2.27,6.51-5.7,10.07-8.2,3.47-2.61,7.02-5.1,10.42-7.79,3.58-2.53,6.1-6.15,9.53-8.83,5.08-4.08,10.55-7.67,16.29-10.75,4.43-2.23,9.23-4.3,14.17-4.98,5.61-1.05,19.8-.06,25.66-.15.01,0,34.23.63,34.24.64,6.02,1.34,11.94,3.3,17.4,6.19,8.82,5.6,17.28,11.83,25.89,17.79,10.1,7.56,20.27,15.06,29.85,23.29,3.25,2.69,6.11,5.84,8.36,9.42,1.73,2.62,3.27,5.56,3.4,8.77,0,1.55.05,13.85.03,15.78,0,0,0,.11,0,.11l-.11.02c-1.19.16-2.35.91-2.84,2.03-.54,1.11-.37,2.41-.37,3.66.28,14.56.17,30.83,2.01,45.22.35,2.46.64,5.02,1.71,7.28,1.81,4.71,2.83,9.71,5.06,14.2.51,1.18,1.48,2.02,2.01,3.19.53,1.18.7,2.47.77,3.73.17,5.07-1.19,10.01-1.72,15.01-.57,5.01-.34,10.08-1.22,15.06-2.08,7.25-3.6,14.66-4.85,22.11-.39,2.48-.82,4.98-.89,7.46.07,1.22.08,2.55-.04,3.79-.72,8.79-1.95,17.52-3.29,26.24-1.62,8.97-3.91,17.83-4.76,26.92,0,.63-.05,1.31-.26,1.91-2.15,4.97-6.42,8.64-10.24,12.33-1.72,1.88-4.48,2.39-6.33,4.03-1.8,1.74-2.23,4.41-2.62,6.79-.48,4.99-1.03,10.05-2.34,14.92-.6,2.45-1.42,4.85-1.72,7.32-.84,4.83-2.67,10.01-.33,14.68.81,1.67,2.05,3.13,3.52,4.26,2.48,1.92,5.06,3.77,7.41,5.86,7.4,6.84,14.75,13.74,21.46,21.27,3.73,4.12,7.58,9.18,7.23,15.04-.07.95-.13,2.08-.92,2.77-.82.65-1.92.34-2.8.65-2.35.75-4.41,2.29-6.24,3.96-5.27,5.31-11.6,9.77-16.26,15.61,0,0-.22.43-.22.43-.09.19-.19.28-.28.42-.18.27-.39.5-.59.76,0,0-1.22,1.45-1.22,1.45-8.22,9.41-24.77,26.65-33.39,35.99-6.81,7.42-13.28,15.15-20.5,22.18-4.48,4.35-8.92,9.39-15.22,10.88-2.55.23-8.7.02-11.35.09,0,0,.14-.11.14-.11-.56,1.79-1.46,3.54-3.04,4.64-1.61,1.12-3.67.67-5.48.48-3.67-.49-7.3-1.27-10.88-2.2-7.24-1.71-13.9-5.07-20.33-8.74-12.84-7.3-25.73-14.67-37.55-23.55-11.5-9.21-23.69-17.98-32.47-30.01-2.18-2.99-4.19-6.09-6.33-9.1-3.11-4.59-6.74-8.8-9.87-13.38-3.06-4.64-6.43-9.02-10.29-13.05h0ZM419.01,683.29c5.26,5.21,9.13,11.61,13.57,17.49,4.64,5.76,8.68,11.97,12.97,17.98,8.79,12.01,20.98,20.75,32.49,29.94,11.82,8.86,24.72,16.21,37.56,23.49,6.43,3.65,13.04,6.99,20.28,8.68,3.57.92,7.19,1.69,10.85,2.18,1.75.19,3.74.63,5.29-.44,1.49-1.03,2.38-2.77,2.91-4.47,0,0,.03-.11.03-.11,0,0,.11,0,.11,0,2.63-.02,8.76.1,11.3-.1,6.22-1.51,10.61-6.51,15.03-10.82,7.21-7.04,13.67-14.78,20.46-22.2,8.78-9.42,25.07-26.65,33.36-36,0,0,1.21-1.44,1.21-1.44.19-.25.4-.48.57-.74.74-1.44,1.82-2.58,2.95-3.69,4.46-4.45,9.34-8.46,13.86-12.83,1.87-1.7,3.94-3.26,6.41-4.06.59-.2,1.3-.18,1.89-.25,1.97-.36,1.46-3.16,1.54-4.66-.62-5-3.8-9.26-7.13-12.89-5.02-5.66-10.39-10.93-15.94-16.07-3.96-4.07-8.32-7.65-12.88-11.02-.98-.76-1.94-1.72-2.64-2.75-3.69-4.89-1.72-11.16-.69-16.55.31-2.54,1.13-4.94,1.73-7.37.62-2.43,1.13-4.89,1.49-7.38.64-3.71.5-7.59,1.66-11.22.66-2.65,2.79-4.32,5.22-5.24,3.35-1.7,5.79-4.77,8.41-7.39,1.92-2.22,4.04-4.46,4.92-7.29.09-.69.12-1.62.19-2.33.94-8.78,3.11-17.35,4.68-26.01,1.17-7.45,2.17-14.94,2.96-22.45.23-2.51.54-4.98.36-7.51.51-7.57,2.27-14.95,3.85-22.35.5-2.46,1.32-4.89,1.93-7.29.88-4.94.66-10.03,1.23-15.03.5-6.13,3.01-12.55,1-18.57-3.78-5.12-4.85-11.6-7.06-17.41-1.93-4.67-1.93-9.91-2.49-14.88-1.01-11.67-.97-26.01-1.2-37.74,0-1.23-.18-2.57.4-3.77.54-1.2,1.75-2,3.05-2.17,0,0-.11.12-.11.12,0,0,0-12.62,0-12.62,0-2.09.1-4.21-.56-6.22-.61-2-1.68-3.83-2.82-5.59-4.47-7.2-11.6-12.1-18.05-17.4-13.18-10.47-26.85-20.28-40.8-29.7-6.49-5.08-14.55-7.73-22.49-9.58.06,0-34.22-.61-34.21-.61-5.88.04-19.93-.81-25.63.17-2.8.44-5.64,1.08-8.16,2.38-2.07.63-4.03,1.58-5.95,2.59-5.72,3.07-11.18,6.67-16.24,10.74-3.42,2.69-5.96,6.32-9.52,8.85-5.02,4.12-10.73,7.45-15.36,12-6.41,5.9-14.65,9.33-21.51,14.61-4.7,4.48-8.28,10.02-11.84,15.41,2.66,4.01,5.21,10.03,5.72,15.38.14,5.55-.67,11.07-1.12,16.59-1.36,13.66-2.89,27.63-4.47,41.29-.81,12.17-6.05,23.43-8.2,35.34-.09,7.23,2.06,14.34,3.54,21.39,2.89,11.35,5.59,22.92,10.21,33.71,2.41,4.23,3.49,9.06,4.82,13.7,1.45,5.35,2.78,10.72,4.07,16.11,1.27,5.36,4.5,19.07,5.73,24.25.73,2.64,1.13,5.45,2.26,7.95.67,1.19,1.58,2.25,2.51,3.27,6.72,6.99,14.57,12.8,22.33,18.58.56,3.89,1,7.8,1.2,11.73.05,2.92.35,5.97-.68,8.76-16.24,16.06-36.09,35.25-52.33,51.53h0Z" fill="#010101"/>
  </g>
  <g>
    <path d="M561.79,461.89c6.23-3.83,14.86-8.15,19.17-11.5,4.31-3.35,9.11-8.15,12.46-9.58,3.35-1.44,4.79-3.35,8.15-3.35s12.48-.96,17.26,0,7.18,1.92,9.09,4.79,4.31,7.19,3.35,12.94c-.96,5.75-3.83,14.38-13.42,15.34-9.58.96-22.62.96-27.37,0s-13.37-6.23-17.2-6.23-11.5-.05-11.5-.05v-2.35Z" fill="#fff"/>
    <path d="M561.79,461.89c5.92-3.74,12.22-6.89,17.93-10.89,4.26-3.04,7.88-6.99,12.36-9.78,2.45-1.09,4.55-2.63,7.04-3.63,2.57-.7,5.26-.34,7.9-.63,6.5-.2,15.23-.99,20.22,3.99,3.33,4.12,5.33,9.58,4.17,14.87-.93,5.14-3.2,10.55-7.99,13.22-3.11,1.83-6.81,1.82-10.3,2.09-3.5.22-7,.33-10.51.34-4.37-.08-8.84.05-13.13-.96-2.53-.75-4.93-1.88-7.34-2.95-2.4-1.04-4.75-2.22-7.28-2.89-1.83-.47-11.06-.29-13.07-.41,0,0-.03,0-.03,0v-.03s.03-2.35.03-2.35h0ZM561.79,461.89l.03,2.35-.03-.03c2.13.09,11.26-.33,13.15.12,5.11,1.29,9.64,4.2,14.67,5.71,7.69,1.49,15.69.92,23.48.6,3.46-.29,7.09-.24,10.09-2.03,4.62-2.56,6.85-7.88,7.75-12.88,1.14-5.15-.82-10.46-4.05-14.46-4.84-4.82-13.49-4.03-19.83-3.83-2.56.28-5.27-.06-7.77.6-2.38.96-4.6,2.54-6.94,3.58-4.46,2.77-8.04,6.69-12.33,9.75-5.86,3.9-12.21,6.89-18.21,10.5h0Z" fill="#010101"/>
  </g>
  <g>
    <path d="M522.02,463.32c-12.46-7.67-29.23-19.17-36.42-23.48-7.19-4.31-11.98-7.19-19.17-7.67-7.19-.48-12.46,6.23-13.42,7.67-.96,1.44-4.31,16.77-1.44,18.21,2.88,1.44,9.05,12.46,23.69,13.18,14.64.72,31.65,2.16,34.41,0,2.76-2.16,12.34-7.91,12.34-7.91Z" fill="#fff"/>
    <path d="M522.02,463.32c-12.63-7.5-24.7-15.93-37.18-23.65-6.15-3.72-12.85-7.68-20.28-7.2-3.61.37-6.82,2.5-9.33,5.08-.88.99-1.93,1.95-2.35,3.23-.7,2.17-1.15,4.42-1.54,6.67-.43,3.1-1.08,6.37-.31,9.45.13.41.35.78.67.95.88.49,1.48,1.19,2.15,1.83,1.87,1.9,3.89,4.02,6.02,5.59,2.87,2.25,6.19,3.9,9.71,4.83,3.51.99,7.22.91,10.88,1.16,7.33.38,14.67.92,22,.85,2.65-.16,5.66.23,7.84-1.54,3.8-2.59,7.77-4.91,11.72-7.25h0ZM522.02,463.32c-3.12,1.93-6.23,3.89-9.28,5.93-1.59.92-2.88,2.46-4.75,2.82-9.12,1.32-18.4-.04-27.55-.32-3.64-.25-7.38-.17-10.98-1.18-6.36-1.57-11.59-5.83-15.96-10.56-.65-.62-1.29-1.33-2.02-1.74-.51-.27-.76-.78-.91-1.23-.82-3.17-.15-6.51.29-9.69.4-2.27.85-4.54,1.56-6.74.44-1.36,1.53-2.37,2.46-3.41,2.58-2.65,5.88-4.84,9.63-5.23,7.55-.5,14.36,3.51,20.58,7.27,12.55,7.68,24.51,16.21,36.93,24.07h0Z" fill="#010101"/>
  </g>
  <g>
    <path d="M514.35,563c7.19-6.23,13.44-10.48,25.65-11.47,12.21-.99,23.29,1.44,28.77,5.73,5.48,4.3,9.31,5.73,13.15,11.48s-.96,11.5-5.75,14.86c-4.79,3.35-20.65,2.57-27.34,1.52-6.69-1.04-25.38-3.4-26.81-4.86-1.44-1.46-11.35-5.93-9.51-11.6l1.84-5.67Z" fill="#fff"/>
    <path d="M514.33,562.99c8.49-7.96,17.38-11.61,29.03-11.82,7.11-.19,14.41.6,21,3.42,3.34,1.36,5.96,3.89,8.93,5.86,2.94,2.01,5.8,4.23,7.91,7.14,1.05,1.41,2.05,3.06,2.15,4.86.42,5.14-4.68,10.38-9.14,12.26-3.43,1.15-7.04,1.36-10.6,1.47-7.05.24-14.34-.72-21.3-1.81-5.29-.76-10.59-1.5-15.84-2.58-1.71-.44-3.67-.57-5.03-1.8-3.83-2.75-10.87-6.16-8.81-11.94,0,0,1.7-5.07,1.7-5.07h0ZM514.37,563.01s-1.61,5.09-1.61,5.09c-1.47,3.63,1.71,6.73,4.43,8.68,1.8,1.26,3.66,2.49,5.52,3.69,6.39,1.88,13.11,2.42,19.67,3.51,6.94,1.09,14.21,2.06,21.24,1.83,3.54-.11,7.14-.3,10.5-1.39,4.37-1.8,9.43-6.91,9.06-11.94-.09-1.76-1.06-3.39-2.09-4.78-2.08-2.92-4.91-5.14-7.87-7.11-3-1.92-5.6-4.48-8.94-5.77-6.56-2.77-13.83-3.45-20.9-3.28-11.63.11-20.4,3.74-29.01,11.48h0Z" fill="#010101"/>
  </g>
  <path d="M541.67,379.46c.28,14.1.15,36.35.17,50.62-.03,14.31.11,36.46-.17,50.62-.28-14.1-.15-36.35-.17-50.62.03-14.31-.11-36.46.17-50.62h0Z" fill="#fff"/>
  <path d="M515.31,400.07c7.27-.28,18.76-.15,26.12-.17,7.39.03,18.82-.11,26.12.17-7.27.28-18.76.15-26.12.17-7.39-.03-18.82.11-26.12-.17h0Z" fill="#fff"/>
  <path d="M593.67,488.95c5.47,2.99,11.7,5.05,17.98,3.95,3.83-.68,7.47,1.1,10.82,2.73,0,0,3.31,3.87,3.31,3.87h-.02s-3.4-3.78-3.4-3.78c-3.25-1.44-6.92-3.33-10.69-2.65-6.28,1.06-12.63-1.03-18-4.12h0Z" fill="#fff"/>
  <path d="M622.41,495.66c.98-.97,2.24-2.44,3.35-3.24-.61.9-2.52,2.51-3.35,3.24h0Z" fill="#010101"/>
  <path d="M617.15,491.37l-4.22,1.59.05-.08c.05,1.58.03,3.15-.07,4.73-.16-1.52-.12-3.17-.09-4.73,0-.06-.01-.06.05-.08,0,.02,4.3-1.5,4.28-1.43h0Z" fill="#010101"/>
  <path d="M632,489.91c2.44.05,4.95.09,7.29.85.29.13.77.28.85.6-.21-.27-.58-.36-.89-.47-2.35-.6-4.86-.82-7.25-.98h0Z" fill="#010101"/>
  <path d="M641.11,485.61c-.39,1.9-2.33,3.63-3.47,4.83-.2,1.21-.46,2.41-.89,3.56-.16.36-.29.8-.67,1.01v-.02c.93-1.12,1-3.19,1.39-4.61,1.37-1.41,3.1-2.86,3.65-4.77h0Z" fill="#fff"/>
  <path d="M503.6,484.42c-2.86,1.28-5.48,3.06-8.49,4.01-1.27.48-3.24.92-4.3,1.75-.31.28-.3.77-.81.82-7.38.82-14.88.84-22.29.38,0,0,0-.02,0-.02,6.25.25,12.52.14,18.77-.18,1.16-.08,2.35-.08,3.49-.32.19-.04.36-.11.42-.27.41-.94,1.61-1.17,2.47-1.51,0,0,2.23-.74,2.23-.74,3.01-.89,5.68-2.74,8.52-3.91h0Z" fill="#fff"/>
  <path d="M452.33,484.4c2.86,2.26,6.08,4.35,8.35,7.18-2.57-2.52-5.62-4.9-8.35-7.18h0Z" fill="#010101"/>
  <path d="M460.7,480.7c-1.9,3.71-3.52,7.9-6.75,10.67,2.89-3.02,4.77-7.04,6.75-10.67h0Z" fill="#fff"/>
  <path d="M567.57,476.63c2.14,1.32,4.68,2.36,6.45,4.08-2.31-1.02-4.48-2.65-6.45-4.08h0Z" fill="#fff"/>
</svg>