<?xml version="1.0" encoding="UTF-8"?>
<svg id="a" data-name="Layer 1" xmlns="http://www.w3.org/2000/svg" viewBox="0 0 1080 1080">
  <path d="M737.46,588.96c-27.03,0-48.96-21.93-48.96-48.96s21.93-48.96,48.96-48.96,48.96-21.93,48.96-48.96-21.84-48.96-48.96-48.96-48.96,21.93-48.96,48.96-21.84,48.96-48.96,48.96-48.96-21.93-48.96-48.96-21.84-48.96-48.96-48.96c-.49,0-1.08,0-1.57.1-.49-.1-1.08-.1-1.67-.1-27.03,0-48.96,21.93-48.96,48.96s-21.84,48.96-48.96,48.96-48.96-21.93-48.96-48.96-21.84-48.96-48.96-48.96-48.96,21.93-48.96,48.96,21.93,48.96,48.96,48.96,48.96,21.93,48.96,48.96-21.84,48.96-48.96,48.96-48.96,21.93-48.96,48.96,21.93,48.96,48.96,48.96,48.96-21.93,48.96-48.96,21.93-48.96,48.96-48.96,48.96,21.93,48.96,48.96,21.93,48.96,48.96,48.96c.59,0,1.18,0,1.67-.1.49.1,1.08.1,1.57.1,27.12,0,48.96-21.93,48.96-48.96s21.93-48.96,48.96-48.96,48.96,21.93,48.96,48.96,21.93,48.96,48.96,48.96,48.96-21.93,48.96-48.96-21.84-48.96-48.96-48.96ZM541.62,588.96c-.49,0-1.08,0-1.57.1-.49-.1-1.08-.1-1.67-.1-27.03,0-48.96-21.93-48.96-48.96s21.93-48.96,48.96-48.96c.59,0,1.18,0,1.67-.1.49.1,1.08.1,1.57.1,27.12,0,48.96,21.93,48.96,48.96s-21.84,48.96-48.96,48.96Z" fill="none" stroke="#010101" stroke-miterlimit="10" stroke-width="3"/>
</svg>