<?xml version="1.0" encoding="UTF-8"?>
<svg id="a" data-name="Layer 1" xmlns="http://www.w3.org/2000/svg" viewBox="0 0 1080 1080">
  <rect x="168.64" y="494.58" width="742.72" height="90.84" transform="translate(-4.69 4.73) rotate(-.5)" fill="none" stroke="#010101" stroke-miterlimit="10" stroke-width="1.51"/>
  <polygon points="251.24 497.1 168.68 545.7 168.39 513.26 195.01 497.59 251.24 497.1" fill="#010101"/>
  <polygon points="360.98 496.14 204.33 588.35 169.05 588.66 168.95 576.56 304.74 496.63 360.98 496.14" fill="#010101"/>
  <polygon points="470.71 495.18 314.06 587.39 257.83 587.88 414.48 495.68 470.71 495.18" fill="#010101"/>
  <polygon points="580.44 494.23 423.79 586.43 367.56 586.92 524.21 494.72 580.44 494.23" fill="#010101"/>
  <polygon points="690.18 493.27 533.53 585.48 477.29 585.97 633.94 493.76 690.18 493.27" fill="#010101"/>
  <polygon points="799.91 492.31 643.26 584.52 587.03 585.01 743.68 492.8 799.91 492.31" fill="#010101"/>
  <polygon points="909.64 491.35 752.99 583.56 696.76 584.05 853.41 491.85 909.64 491.35" fill="#010101"/>
  <polygon points="911.21 521.46 911.49 553.9 862.73 582.6 806.49 583.09 911.21 521.46" fill="#010101"/>
</svg>