<?xml version="1.0" encoding="UTF-8"?>
<svg id="a" data-name="Layer 1" xmlns="http://www.w3.org/2000/svg" viewBox="0 0 1080 1080">
  <path d="M832.19,698.92l-584.37-1.59v-221.1c37.28-37.18,58.13-57.97,95.41-95.15l488.96,1.33v316.51Z" fill="#010101"/>
  <path d="M380.79,592.06l-48.93-52.06,48.93-52.06c87.93-93.54,230.49-93.54,318.42,0l48.93,52.06-48.93,52.06c-87.93,93.54-230.49,93.54-318.42,0Z" fill="#fff"/>
  <path d="M584.75,540c0,26.29-20.04,47.58-44.72,47.58s-44.72-21.29-44.72-47.58c0-2.2.12-4.34.48-6.42,3.69,2.62,8.09,4.1,12.85,4.1,13.14,0,23.79-11.36,23.79-25.27,0-6.84-2.5-12.96-6.6-17.48,4.46-1.61,9.22-2.5,14.21-2.5,24.68,0,44.72,21.29,44.72,47.58Z" fill="#010101"/>
  <polyline points="307.17 652.79 307.17 624.73 277.57 624.73" fill="none" stroke="#fff" stroke-miterlimit="10" stroke-width="2"/>
  <polyline points="766.89 402.95 766.89 431.02 796.49 431.02" fill="none" stroke="#fff" stroke-miterlimit="10" stroke-width="2"/>
</svg>