<?xml version="1.0" encoding="UTF-8"?>
<svg id="a" data-name="Layer 1" xmlns="http://www.w3.org/2000/svg" viewBox="0 0 1080 1080">
  <path d="M540.9,540c20.4,70.81,20.16,185.75,1.19,257.03,0,0-.56,2.04-.56,2.04,0,0-.63,2.04-.63,2.04h-1.8c-.63-36.36-.68-93.75-.9-130.55.22-36.91.26-94.04.9-130.55,0,0,1.8,0,1.8,0h0Z" fill="#010101"/>
  <path d="M540.64,539.36c64.49,35.65,145.6,117.09,182.58,180.9,0,0,1.05,1.84,1.05,1.84,0,0,1,1.89,1,1.89l-1.27,1.27c-26.16-25.26-66.78-65.81-92.95-91.68-25.95-26.26-66.31-66.68-91.68-92.95,0,0,1.27-1.27,1.27-1.27h0Z" fill="#010101"/>
  <path d="M540,539.1c70.81-20.4,185.75-20.16,257.03-1.19,0,0,2.04.56,2.04.56l2.04.63v1.8c-36.36.63-93.75.68-130.55.9-36.91-.22-94.04-.26-130.55-.9,0,0,0-1.8,0-1.8h0Z" fill="#010101"/>
  <path d="M539.36,539.36c35.65-64.49,117.09-145.6,180.9-182.58,0,0,1.84-1.05,1.84-1.05,0,0,1.89-1,1.89-1,0,0,1.27,1.27,1.27,1.27-25.26,26.16-65.81,66.78-91.68,92.95-26.26,25.95-66.68,66.31-92.95,91.68,0,0-1.27-1.27-1.27-1.27h0Z" fill="#010101"/>
  <path d="M539.1,540c-20.4-70.81-20.16-185.75-1.19-257.03,0,0,.56-2.04.56-2.04l.63-2.04h1.8c.63,36.36.68,93.75.9,130.55-.22,36.91-.26,94.04-.9,130.55,0,0-1.8,0-1.8,0h0Z" fill="#010101"/>
  <path d="M539.36,540.64c-64.49-35.65-145.6-117.09-182.58-180.9,0,0-1.05-1.84-1.05-1.84l-1-1.89,1.27-1.27c26.16,25.26,66.78,65.81,92.95,91.68,25.95,26.26,66.31,66.68,91.68,92.95,0,0-1.27,1.27-1.27,1.27h0Z" fill="#010101"/>
  <path d="M540,540.9c-70.81,20.4-185.75,20.16-257.03,1.19,0,0-2.04-.56-2.04-.56,0,0-2.04-.63-2.04-.63,0,0,0-1.8,0-1.8,36.36-.63,93.75-.68,130.55-.9,36.91.22,94.04.26,130.55.9,0,0,0,1.8,0,1.8h0Z" fill="#010101"/>
  <path d="M540.64,540.64c-35.65,64.49-117.09,145.6-180.9,182.58,0,0-1.84,1.05-1.84,1.05,0,0-1.89,1-1.89,1,0,0-1.27-1.27-1.27-1.27,25.26-26.16,65.81-66.78,91.68-92.95,26.26-25.95,66.68-66.31,92.95-91.68,0,0,1.27,1.27,1.27,1.27h0Z" fill="#010101"/>
</svg>