<?xml version="1.0" encoding="UTF-8"?>
<svg id="a" data-name="Layer 1" xmlns="http://www.w3.org/2000/svg" viewBox="0 0 1080 1080">
  <circle cx="535.75" cy="396.32" r="42.05" fill="#010101"/>
  <path d="M539.9,578.14c-.57.05-1.15,0-1.72-.1l.83-.83.89.94Z" fill="#010101"/>
  <path d="M737.19,688.42c.99,27.44-20.46,50.46-47.9,51.39-27.44.99-50.46-20.46-51.39-47.9-.05-1.35-.05-2.71,0-4.06,1.09-49.05-60.61-107.16-98.78-109.56.31,0,.57,0,.89-.05l-.1-.1-.89-.94-.83.83-.21.21c.36,0,.78.05,1.15.05-38.27,1.67-101.33,59.67-100.34,108.98v1.15c0,26.61-21.09,48.63-47.96,49.57-27.39.99-50.4-20.46-51.39-47.9-.94-27.44,20.52-50.46,47.96-51.39,1.35-.05,2.71-.05,4.01,0,49.57,1.09,108.36-61.91,109.66-99.92.05-1.93.26-3.8.68-5.68-7.5-38.53-61.76-94.56-108.2-93.57h-1.09c-26.61,0-48.69-21.09-49.62-47.96-.99-27.44,20.46-50.46,47.9-51.39,27.44-.94,50.46,20.52,51.39,47.96.05,1.35.05,2.66,0,4.01-1.09,49.05,60.61,107.16,98.78,109.56,38.27-1.67,101.33-59.67,100.34-108.98v-1.15c0-26.61,21.09-48.63,47.96-49.57,27.39-.94,50.4,20.52,51.39,47.96.94,27.39-20.52,50.4-47.96,51.39-1.35.05-2.71,0-4.01,0-49.57-1.15-108.36,61.86-109.66,99.92-.05,1.93-.26,3.8-.68,5.68,7.45,38.17,60.82,93.52,107,93.52h2.24c26.66,0,48.74,21.14,49.68,47.96Z" fill="#010101"/>
  <circle cx="684.42" cy="534.96" r="42.05" fill="#010101"/>
  <circle cx="397.11" cy="545" r="42.05" fill="#010101"/>
  <circle cx="545.78" cy="683.64" r="42.05" fill="#010101"/>
</svg>