<?xml version="1.0" encoding="UTF-8"?>
<svg id="a" data-name="Layer 1" xmlns="http://www.w3.org/2000/svg" viewBox="0 0 1080 1080">
  <path d="M280.26,800.55c8.9,8.9,19.39,13.03,35.91,13.03,62.29,0,90.57-66.1,97.24-119.8-15.57,24.15-41.94,38.77-75.31,38.77-113.77,0-106.78-169.38,12.71-169.38,63.24,0,94.38,50.21,94.38,104.87,0,76.59-50.21,153.17-138.24,153.17-12.39,0-24.79-1.27-36.23-5.4l9.54-15.26ZM284.71,647.06c0,61.65,35.59,85.48,72.77,77.86,27.01-5.72,49.57-28.6,57.51-60.7-2.53-120.76-130.29-126.48-130.29-17.16Z" fill="#010101"/>
  <path d="M478.08,606.32c8.9,8.9,19.39,13.03,35.91,13.03,62.29,0,90.57-66.1,97.24-119.8-15.57,24.15-41.94,38.77-75.31,38.77-113.77,0-106.78-169.38,12.71-169.38,63.24,0,94.38,50.21,94.38,104.87,0,76.59-50.21,153.17-138.24,153.17-12.39,0-24.79-1.27-36.23-5.4l9.54-15.26ZM482.53,452.84c0,61.65,35.59,85.48,72.77,77.86,27.01-5.72,49.57-28.6,57.51-60.7-2.53-120.76-130.29-126.48-130.29-17.16Z" fill="#010101"/>
  <path d="M658.24,800.55c8.9,8.9,19.39,13.03,35.91,13.03,62.29,0,90.57-66.1,97.24-119.8-15.57,24.15-41.94,38.77-75.31,38.77-113.77,0-106.78-169.38,12.71-169.38,63.24,0,94.38,50.21,94.38,104.87,0,76.59-50.21,153.17-138.24,153.17-12.39,0-24.79-1.27-36.23-5.4l9.54-15.26ZM662.69,647.06c0,61.65,35.59,85.48,72.77,77.86,27.01-5.72,49.57-28.6,57.51-60.7-2.53-120.76-130.29-126.48-130.29-17.16Z" fill="#010101"/>
  <ellipse cx="545.28" cy="294.11" rx="189.81" ry="35.31" fill="none" stroke="#010101" stroke-miterlimit="10"/>
</svg>